<svg xmlns="http://www.w3.org/2000/svg" xmlns:xlink="http://www.w3.org/1999/xlink" viewBox="0 0 400 300" width="406" height="306" class="illustration styles_illustrationTablet__1DWOa"><defs><linearGradient id="linear-gradient" x1="208.3" y1="151.44" x2="256.44" y2="217.42" gradientUnits="userSpaceOnUse"><stop offset="0" stop-color="#226a00"></stop><stop offset="1" stop-color="#fff"></stop></linearGradient><linearGradient id="linear-gradient-2" x1="52.18" y1="184.25" x2="73.67" y2="167.37" gradientTransform="matrix(-1, 0, 0, 1, 142.78, 0)" gradientUnits="userSpaceOnUse"><stop offset="0" stop-opacity="0"></stop><stop offset="1" stop-color="#f15a24"></stop></linearGradient></defs><title>PP</title><g style="isolation: isolate;"><g id="Layer_2" data-name="Layer 2"><path d="M197.07,274,24.57,172c-5.49-3.08-10.2-8.15-4.85-11.46L192.84,60.78c2.6-1.61,6.54-2.66,9.18-1.13L383.1,164.74c5.49,3.19,6.48,12.1,1,15.29L219.81,273.8A22.94,22.94,0,0,1,197.07,274Z" fill="#b0d87c"></path><path d="M268.22,219.45c-9.55,5.63-30.27,14.87-39.4,20.94l-76-46.72L254,147.4l67.43,40.9C316.21,191.09,273.32,216.44,268.22,219.45Z" fill="url(#linear-gradient)" style="mix-blend-mode: multiply;"></path><path d="M153.27,193.48S155,166.6,155.58,160c.57-6,2.57-32.42,19.09-40.76,20.88-10.54,44.94-24.23,67.17-17.86,18,5.17,24.17,67.54,24,71.7C265.45,180.51,209.54,220,153.27,193.48Z" fill="#68e1fd"></path><path d="M196,122.41c0,1.22,14.74,18,18.29,15.83s5.19-17.19,7.37-15.83,10.22,11.07,11.39,10.31-1.73-26.5-4.1-30.82S196,112.86,196,122.41Z" fill="#2b415d"></path><path d="M233,59.92s-.09,17.45,0,23.94c.09,6.84-2.8,25.31-14,24.72S196.2,94.91,196.2,91.92c0,0-11.36-7.07-4.94-12.51s6.92,3.77,6.92,3.77,3.49-5.06,3.72-18.65C201.89,64.52,217.94,67.06,233,59.92Z" fill="#ffac73"></path><path d="M196.72,110c5.74,5.29,15.06,6.27,23.69,5a2.81,2.81,0,0,0,2.59-2.44c.14-2.64.3-5.28.53-7.92L193.88,90.21l2.29,18.89S196.36,109.47,196.72,110Z" fill="#ffac73"></path><path d="M217.05,115.42c1.16-.08,2.31-.21,3.45-.37a2.71,2.71,0,0,0,2.5-2.36c.07-1.38.14-2.75.23-4.13-6.28,0-17.45-1.48-23.34-13.11A25.35,25.35,0,0,0,217.05,115.42Z" fill="#e5894a"></path><path d="M233,69.85s7.13-4.49,6.28-15.12S226.65,38.1,210.62,39s-34.39,8.77-37,35-8.27,41.39,1,45.23,24.11,8.16,39.57,6.32c0,0-15.06-29.75-13.49-49.78s1.93-4.74,3.68-1.43S233,69.85,233,69.85Z" fill="#4b1b13"></path><path d="M186.77,202.39c.56,0,1.11.08,1.67.08q-.24-16.85-.09-33.69c0-2.38-3.67-2.38-3.69,0q-.15,16.74.09,33.47Z" fill="#bc424b"></path><path d="M247.68,188.3h0a2.37,2.37,0,0,1,.39-.18l1-.55c.38-.22.78-.43,1.17-.64l1-.54q-.07-20-1.19-40c-.13-2.36-3.83-2.38-3.69,0q1.15,20.6,1.2,41.23A1.85,1.85,0,0,0,247.68,188.3Z" fill="#bc424b"></path><path d="M233.27,84.89c-2.71-1.62-5.06-3.16-8.22-3.72-.72-.13-2.21.74-2.87,1a60.92,60.92,0,0,0-7.7,4.2c-1.14.7-2.28,1.4-3.41,2.11-.81.51-3.42,1.63-3.79,2.49-1.59,3.69-3.45,10.15-3.45,10.15s9.73,12.17,19.39,7.42S234.36,88.44,233.27,84.89Z" fill="#fff"></path><polyline points="210.6 89.48 201.02 84.89 201.34 87.26 207.63 90.21 204.86 97.76 203.16 96.05 203.83 101.14" fill="#fff"></polyline><path d="M224.4,92.22A14.89,14.89,0,0,0,231.58,90c-2.91,1.2-6,1.27-9.31,1.27a101,101,0,0,1-10.7-.46A51,51,0,0,0,224.4,92.22Z" fill="#ccc"></path><path d="M223.38,97.14a13.41,13.41,0,0,0,7.28-2.24c-2.33,1.05-5.18,1.14-7.68,1.23-4.14.15-8.88.2-12.58-1.9l-.11,0A24.45,24.45,0,0,0,223.38,97.14Z" fill="#ccc"></path><path d="M214.32,102.92a25,25,0,0,0,9.39.45,15.24,15.24,0,0,0,5.79-2.75A24,24,0,0,1,209,99.71,14.22,14.22,0,0,0,214.32,102.92Z" fill="#ccc"></path><path d="M88.37,191.62,59.48,175l20.13-8.48,25.18,13.63A145.55,145.55,0,0,1,88.37,191.62Z" fill="url(#linear-gradient-2)"></path><path d="M82.88,146.9s2.9,24.92-10.28,29.74-20.24-7.72-20.44-29.74" fill="#68e1fd"></path><ellipse cx="67.52" cy="146.9" rx="15.36" ry="8.88" fill="#f2696a"></ellipse><path d="M63.58,127.15s6-8.71,3.4-14.72c0,0-2.17-3.87-5.24-4.48,0,0,.31,8.25-2.77,7.2s0-8.64,0-8.64-3.23-4.37-6.76-4.23,0,7.72-2.46,6.46-.15-7.71-2.92-8.48A58.06,58.06,0,0,0,39.15,99s-2.61,7.53,0,8.6,6.45,1.44,4.61,3.1-7.07-.25-7.07-.25-.33,4.24,1.45,6.07,12.22-2.22,10.38,1.42-8.76,1.82-8.76,1.82,3.53,5.05,7.68,7.35S63.58,127.15,63.58,127.15Z" fill="#8ccc00"></path><path d="M62.17,148.94s4.35-4.3,3.5-8c0,0-.82-2.43-2.5-3.1,0,0-.71,4.72-2.34,3.79s.92-4.9.92-4.9-1.37-2.83-3.39-3.12S57.55,138,56.28,137s.74-4.39-.75-5.12a33.54,33.54,0,0,0-4.23-1.52s-2.29,4-.92,4.88,3.51,1.51,2.29,2.25-4-.89-4-.89-.64,2.37.18,3.6,7.18,0,5.74,1.91-5.17.1-5.17.1a16.35,16.35,0,0,0,3.58,5C55.12,149,62.17,148.94,62.17,148.94Z" fill="#8ccc00"></path><path d="M78.19,139.65s10.58.41,14.24-5c0,0,2.1-3.91,1-6.83,0,0-6.8,4.69-7.56,1.54s7.28-4.64,7.28-4.64,2-5.07-.06-8-6.51,4.15-6.77,1.4,6.42-4.27,5.58-7a58.06,58.06,0,0,0-3.09-7.14s-7.75,1.84-7.26,4.62,2.25,6.22-.14,5.55S77.79,108,77.79,108s-3.75,2-4.34,4.48,8.44,9.12,4.38,9.52-6.24-6.41-6.24-6.41S69.24,121.3,69.52,126,78.19,139.65,78.19,139.65Z" fill="#8ccc00"></path><path d="M41.45,102.37q1.68,1.42,3.38,2.9c-.12-1.2-.26-2.39-.45-3.58-.1-.63.86-.9,1-.27q.38,2.39.58,4.8c3,2.6,5.91,5.32,8.65,8.21a35.69,35.69,0,0,0,.18-6.11c0-.64,1-.64,1,0a36.71,36.71,0,0,1-.3,7.06,69.17,69.17,0,0,1,4.92,5.94,19.81,19.81,0,0,0,3.43-8c.12-.63,1.08-.36,1,.27a20.49,20.49,0,0,1-3.69,8.47.51.51,0,0,1-.1.09c4.4,6.23,7.42,13.22,7.68,21.32,0,.64-1,.64-1,0-.25-7.8-3.14-14.56-7.36-20.59a38.56,38.56,0,0,1-12.39,1.21c-.64,0-.64-1,0-1A37.78,37.78,0,0,0,59.68,122a72.53,72.53,0,0,0-7-8.09l-.09,0c-2.33.21-4.67.41-7,.5a8.55,8.55,0,0,1-4.35-.5c-.58-.29-.07-1.15.5-.86,1.62.81,3.87.38,5.6.28,1.48-.09,3-.21,4.44-.34-3.57-3.53-7.38-6.81-11.07-9.94C40.25,102.66,41,102,41.45,102.37Z" fill="#06577a"></path><path d="M72.44,121.83a.5.5,0,0,1,1-.27,17.71,17.71,0,0,0,6.42,9.22q1.7-4.72,3.11-9.53A29.87,29.87,0,0,1,77.06,113c-.28-.58.59-1.09.86-.5a29.1,29.1,0,0,0,5.33,7.67c1-3.68,2-7.39,2.74-11.15.13-.63,1.09-.36,1,.27Q85.37,117,83,124.45a23.45,23.45,0,0,0,5.46-1.78c.58-.27,1.09.59.5.86a24.53,24.53,0,0,1-6.31,2h0c-1.05,3.29-2.24,6.54-3.5,9.76a24.18,24.18,0,0,0,8.7-1.92c.59-.25,1.1.61.5.86a25.51,25.51,0,0,1-9.59,2.07q-2.41,6-5.3,11.83c-.29.58-1.15.07-.86-.5a156.06,156.06,0,0,0,6.85-15.87h0A18.81,18.81,0,0,1,72.44,121.83Z" fill="#06577a"></path><path d="M54.33,134.76l2.75,4.61a8.62,8.62,0,0,0,.87-1.44c.28-.58,1.14-.07.86.5a9.53,9.53,0,0,1-1.15,1.82l0,0,3,5a2,2,0,0,0,.61-1.2c.08-.63,1.08-.64,1,0a3.15,3.15,0,0,1-1.1,2.06l3.73,6.26a.5.5,0,0,1-.86.5l-4.92-8.25a7.47,7.47,0,0,1-2.43-.37c-.61-.2-.35-1.17.27-1a6.65,6.65,0,0,0,1.55.29l-5-8.36A.5.5,0,0,1,54.33,134.76Z" fill="#06577a"></path></g></g></svg>